<?xml version="1.0" encoding="UTF-8" standalone="no"?>
<svg
   width="899"
   height="285"
   viewBox="0 0 899 285"
   fill="none"
   version="1.1"
   id="svg12"
   sodipodi:docname="logo_text_light.svg"
   inkscape:version="1.4.3 (0d15f75, 2025-12-25)"
   xmlns:inkscape="http://www.inkscape.org/namespaces/inkscape"
   xmlns:sodipodi="http://sodipodi.sourceforge.net/DTD/sodipodi-0.dtd"
   xmlns="http://www.w3.org/2000/svg"
   xmlns:svg="http://www.w3.org/2000/svg">
  <defs
     id="defs12" />
  <sodipodi:namedview
     id="namedview12"
     pagecolor="#ffffff"
     bordercolor="#000000"
     borderopacity="0.25"
     inkscape:showpageshadow="2"
     inkscape:pageopacity="0.0"
     inkscape:pagecheckerboard="0"
     inkscape:deskcolor="#d1d1d1"
     inkscape:zoom="0.96"
     inkscape:cx="448.4375"
     inkscape:cy="142.1875"
     inkscape:window-width="1720"
     inkscape:window-height="1382"
     inkscape:window-x="3232"
     inkscape:window-y="30"
     inkscape:window-maximized="0"
     inkscape:current-layer="svg12" />
  <path
     d="M233.867 13.7334C215.867 24.9334 208.667 30.1334 198.267 39.8668C187.867 49.7334 182.133 57.8668 179.067 67.4668C177.067 73.8668 177.067 74.8001 179.2 81.4668C181.467 88.5335 191.733 108 193.2 108C193.6 108 198 100 202.933 90.2668C211.733 72.9334 225.2 49.2001 225.333 50.9334C225.333 53.4668 215.067 78.0001 208 92.0001C203.6 100.8 200 108.533 200 109.2C200 110.8 227.6 104.933 233.333 102.267C247.067 95.6001 253.6 69.0668 250.933 31.3334C248.8 2.40011 250 3.60011 233.867 13.7334Z"
     fill="#BE9C52"
     id="path1" />
  <path
     d="M168 97.3334C166.267 98.4 166.267 99.0667 167.733 101.467C168.8 103.067 170.667 106.267 172 108.533C178.533 120.267 184.133 129.333 185.067 129.867C186.4 130.667 225.333 121.333 225.333 120.267C225.333 119.733 224 117.6 222.267 115.6L219.333 111.733L210.267 113.867C194 117.733 191.867 116.8 183.2 101.867C180.133 96.6667 179.2 96 174.933 96C172.133 96 169.067 96.6667 168 97.3334Z"
     fill="#BE9C52"
     id="path2" />
  <path
     d="M45.5999 108.267C36.2666 115.067 31.1999 119.467 32.2666 120C33.1999 120.533 42.7999 123.467 53.5999 126.667L73.1999 132.4L84.9333 121.867C100.667 107.733 100.133 108.267 98.9333 107.6C98.3999 107.2 94.3999 106 89.9999 104.8C85.5999 103.733 78.3999 101.6 74.1333 100C69.7333 98.5335 64.9333 97.3335 63.4666 97.3335C61.8666 97.3335 53.8666 102.267 45.5999 108.267Z"
     fill="#213828"
     id="path3"
     style="fill:#f9f7f2;fill-opacity:1" />
  <path
     d="M154.133 115.6L147.867 128.667L156.933 144.267C161.867 152.933 166.4 160 166.933 160C168.8 160 180.267 135.733 179.6 133.2C178.8 130 162.4 102.667 161.333 102.667C160.933 102.667 157.733 108.533 154.133 115.6Z"
     fill="#213828"
     id="path4"
     style="fill:#f9f7f2;fill-opacity:1" />
  <path
     d="M91.0667 123.067C85.0667 128.4 79.8667 133.867 79.3334 135.333C78.5334 138 88.4001 162.267 90.0001 161.733C90.5334 161.6 96.2667 156.4 102.8 150.267L114.8 138.933L111.2 131.2C109.333 126.8 106.8 121.067 105.6 118.267C104.533 115.6 103.2 113.333 102.8 113.467C102.4 113.467 97.0667 117.867 91.0667 123.067Z"
     fill="#213828"
     id="path5"
     style="fill:#f9f7f2;fill-opacity:1" />
  <path
     d="M32 126.667C32 127.467 35.0667 134.267 38.9333 142L45.8667 155.867L61.3333 159.333C83.0667 164.267 82.6667 164.133 82.6667 162.667C82.6667 160.8 74.5333 141.2 72.9333 139.067C71.8667 137.6 61.0667 133.867 39.0667 127.467C35.2 126.4 32 126 32 126.667Z"
     fill="#213828"
     id="path6"
     style="fill:#f9f7f2;fill-opacity:1" />
  <path
     d="M203.467 131.467C193.867 134 186 136.267 185.867 136.4C184.267 138.267 173.333 161.733 173.867 162.267C174.533 162.933 210.667 156.533 211.333 155.733C211.467 155.467 215.067 148.933 219.2 140.933C228.267 124 229.333 124.667 203.467 131.467Z"
     fill="#213828"
     id="path7"
     style="fill:#f9f7f2;fill-opacity:1" />
  <path
     d="M145.067 147.6C141.467 147.867 138.667 148.533 138.667 148.933C138.667 151.067 159.2 184 160.533 184C163.733 184 198.667 174 198.667 173.2C198.667 172.533 197.333 170.533 195.6 168.533L192.533 164.933L181.6 166.533C175.467 167.467 169.333 167.733 168 167.333C166.533 166.8 162.267 162 158.667 156.533C154.933 151.067 151.733 146.8 151.6 146.933C151.467 147.067 148.533 147.333 145.067 147.6Z"
     fill="#213828"
     id="path8"
     style="fill:#f9f7f2;fill-opacity:1" />
  <path
     d="M100 160C94 165.733 88.9333 169.333 87.0666 169.333C85.4666 169.333 79.7333 168.4 74.4 167.333L64.6666 165.2L61.7333 168.933C60 170.933 58.8 173.2 59.0666 173.867C59.3333 174.533 63.8666 176.8 69.3333 178.933C77.7333 182.133 78.4 182.667 74 182.133C71.0666 181.733 66.6666 180.933 64.1333 180.533L59.6 179.6L80.6666 220.8C92.1333 243.467 102.467 263.333 103 264L138.5 264L155.5 264L165.067 244.667C174 227.6 174.8 225.333 173.333 222.533C172.4 220.8 171.467 219.067 171.2 218.933C171.067 218.667 164 219.733 155.467 221.467C143.067 223.867 139.733 224.133 138.133 222.8C136.133 221.067 128.533 207.733 120 190.933L115.733 182.533L120.533 172.533L125.333 162.533L122.667 157.467C117.733 147.733 112.667 148.267 100 160Z"
     fill="#213828"
     id="path9"
     style="fill:#f9f7f2;fill-opacity:1" />
  <path
     d="M128.933 167.6C125.467 174.8 122.667 181.467 122.667 182.4C122.667 184.133 132.8 204.8 137.2 212L139.733 216.133L147.2 202.133C151.467 194.4 154.533 187.6 154.267 186.933C152.533 183.733 135.6 154.667 135.333 154.667C135.2 154.667 132.267 160.533 128.933 167.6Z"
     fill="#213828"
     id="path10"
     style="fill:#f9f7f2;fill-opacity:1" />
  <path
     d="M177.467 184.667C168.4 187.2 160.4 189.733 159.867 190.267C158.267 192 145.067 217.467 145.467 218C146 218.4 168 213.6 178.4 210.8C183.733 209.333 184.4 208.533 189.6 198.267C198.667 180.667 198.933 180 196.267 180.133C195.067 180.133 186.533 182.267 177.467 184.667Z"
     fill="#213828"
     id="path11"
     style="fill:#f9f7f2;fill-opacity:1" />
  <path
     d="M302.116 222.723L273.316 162.232C271.733 158.929 270.013 156.589 268.155 155.213C266.366 153.837 263.957 153.08 260.929 152.942V148.916C263.2 148.985 266.056 149.054 269.497 149.123C272.938 149.191 276.895 149.226 281.368 149.226C286.254 149.226 290.452 149.191 293.961 149.123C297.54 149.054 300.258 148.985 302.116 148.916V152.942C298.813 153.011 296.301 153.389 294.581 154.077C292.86 154.697 291.897 155.695 291.69 157.071C291.553 158.447 292 160.271 293.032 162.542L312.439 203.523L309.652 204.555L323.794 172.142C325.652 167.944 326.615 164.469 326.684 161.716C326.753 158.895 325.858 156.761 324 155.316C322.142 153.802 319.32 153.011 315.535 152.942V148.916C318.151 148.985 320.422 149.054 322.348 149.123C324.344 149.123 326.168 149.157 327.819 149.226C329.471 149.226 331.123 149.226 332.774 149.226C335.183 149.226 337.385 149.191 339.381 149.123C341.376 149.054 343.303 148.985 345.161 148.916V152.942C342.89 153.286 340.895 154.009 339.174 155.11C337.454 156.142 335.871 157.69 334.426 159.755C333.049 161.819 331.604 164.572 330.09 168.013L305.832 222.723H302.116ZM340.542 222V217.974C343.914 217.905 346.254 217.355 347.561 216.323C348.938 215.29 349.626 213.363 349.626 210.542V181.639C349.626 178.542 348.972 176.305 347.665 174.929C346.426 173.484 344.052 172.692 340.542 172.555V168.529C341.987 168.598 343.398 168.667 344.774 168.735C346.22 168.804 347.665 168.839 349.11 168.839C352.275 168.839 355.235 168.735 357.987 168.529C360.74 168.254 363.286 167.875 365.626 167.394V210.542C365.626 213.432 366.314 215.394 367.69 216.426C369.067 217.389 371.407 217.905 374.71 217.974V222C373.678 221.931 372.232 221.897 370.374 221.897C368.585 221.828 366.589 221.759 364.387 221.69C362.254 221.622 360.086 221.587 357.884 221.587C354.65 221.587 351.381 221.656 348.078 221.794C344.774 221.862 342.263 221.931 340.542 222ZM357.161 158.619C354.753 158.619 352.585 157.862 350.658 156.348C348.8 154.834 347.871 152.735 347.871 150.052C347.871 147.299 348.8 145.166 350.658 143.652C352.585 142.138 354.753 141.381 357.161 141.381C359.57 141.381 361.738 142.138 363.665 143.652C365.592 145.166 366.555 147.265 366.555 149.948C366.555 152.701 365.592 154.834 363.665 156.348C361.738 157.862 359.57 158.619 357.161 158.619ZM399.321 223.445C393.885 223.445 389.756 221.966 386.934 219.006C384.182 215.978 382.805 211.54 382.805 205.69V172.555H372.07V168.529H382.805V153.871C385.902 153.871 388.758 153.699 391.373 153.355C393.988 152.942 396.465 152.391 398.805 151.703V168.529H413.36V172.555H398.805V209.303C398.805 211.643 399.287 213.398 400.25 214.568C401.283 215.669 402.762 216.219 404.689 216.219C406.478 216.219 407.992 215.669 409.231 214.568C410.538 213.467 411.674 211.781 412.637 209.51L415.734 211.058C414.22 215.394 412.156 218.559 409.541 220.555C406.994 222.482 403.588 223.445 399.321 223.445ZM430.9 223.445C426.427 223.445 422.882 222.275 420.267 219.935C417.652 217.596 416.345 214.396 416.345 210.335C416.345 207.239 417.067 204.727 418.513 202.8C419.958 200.804 421.816 199.187 424.087 197.948C426.427 196.71 428.87 195.677 431.416 194.852C434.031 194.026 436.474 193.234 438.745 192.477C441.085 191.72 442.977 190.826 444.422 189.794C445.867 188.761 446.59 187.385 446.59 185.665V180.71C446.59 177.682 445.799 175.376 444.216 173.794C442.702 172.142 440.465 171.316 437.506 171.316C435.304 171.316 433.515 171.626 432.138 172.245C430.831 172.865 430.177 173.725 430.177 174.826C430.177 175.72 430.452 176.615 431.003 177.51C431.622 178.335 432.207 179.23 432.758 180.194C433.308 181.157 433.584 182.224 433.584 183.394C433.584 184.976 432.93 186.249 431.622 187.213C430.315 188.176 428.56 188.658 426.358 188.658C423.949 188.658 422.022 187.97 420.577 186.594C419.201 185.217 418.513 183.359 418.513 181.019C418.513 178.198 419.51 175.755 421.506 173.69C423.502 171.626 426.289 170.009 429.867 168.839C433.446 167.669 437.609 167.084 442.358 167.084C447.175 167.084 451.063 167.738 454.022 169.045C457.05 170.284 459.218 172.348 460.525 175.239C461.902 178.129 462.59 182.017 462.59 186.903V213.329C462.59 214.843 462.831 215.944 463.313 216.632C463.794 217.252 464.551 217.561 465.584 217.561C466.409 217.561 467.235 217.389 468.061 217.045C468.956 216.701 469.85 216.219 470.745 215.6L472.396 218.903C470.538 220.417 468.405 221.553 465.996 222.31C463.657 223.067 461.007 223.445 458.048 223.445C450.685 223.445 446.934 220.692 446.796 215.187C444.87 217.94 442.564 220.004 439.88 221.381C437.265 222.757 434.272 223.445 430.9 223.445ZM438.745 215.29C440.259 215.29 441.704 214.946 443.08 214.258C444.457 213.57 445.627 212.503 446.59 211.058V191.445C446.108 192.546 445.282 193.51 444.113 194.335C443.012 195.092 441.773 195.849 440.396 196.606C439.02 197.363 437.678 198.224 436.371 199.187C435.132 200.151 434.065 201.32 433.171 202.697C432.345 204.073 431.932 205.759 431.932 207.755C431.932 210.163 432.517 212.022 433.687 213.329C434.925 214.637 436.612 215.29 438.745 215.29ZM470.519 222V217.974C473.822 217.905 476.128 217.355 477.435 216.323C478.812 215.29 479.5 213.363 479.5 210.542V155.523C479.5 152.426 478.846 150.155 477.539 148.71C476.3 147.265 473.96 146.508 470.519 146.439V142.31C471.896 142.378 473.306 142.447 474.751 142.516C476.197 142.585 477.607 142.619 478.984 142.619C482.08 142.619 485.005 142.516 487.758 142.31C490.579 142.034 493.16 141.656 495.5 141.174V210.542C495.5 213.432 496.188 215.394 497.564 216.426C498.941 217.389 501.28 217.905 504.584 217.974V222C503.551 221.931 502.106 221.897 500.248 221.897C498.459 221.828 496.463 221.759 494.261 221.69C492.128 221.622 489.96 221.587 487.758 221.587C484.592 221.587 481.323 221.656 477.951 221.794C474.648 221.862 472.171 221.931 470.519 222ZM536.769 223.445C532.777 223.445 529.371 223.032 526.549 222.206C523.796 221.381 521.526 220.589 519.736 219.832C518.016 219.006 516.605 218.594 515.504 218.594C514.678 218.594 513.99 218.972 513.44 219.729C512.958 220.417 512.579 221.484 512.304 222.929H508.175C508.313 221.346 508.416 219.454 508.485 217.252C508.553 214.981 508.588 212.09 508.588 208.581C508.657 205.071 508.691 200.701 508.691 195.471H512.82C513.44 202.903 515.71 208.753 519.633 213.019C523.624 217.217 528.82 219.316 535.22 219.316C539.762 219.316 543.375 218.181 546.059 215.91C548.743 213.57 550.085 210.439 550.085 206.516C550.085 204.039 549.465 201.837 548.227 199.91C547.057 197.983 545.13 196.194 542.446 194.542C539.831 192.89 536.321 191.239 531.917 189.587C526.687 187.729 522.42 185.699 519.117 183.497C515.814 181.226 513.405 178.714 511.891 175.961C510.377 173.209 509.62 170.112 509.62 166.671C509.62 162.748 510.515 159.376 512.304 156.555C514.093 153.665 516.64 151.428 519.943 149.845C523.246 148.262 527.134 147.471 531.607 147.471C535.255 147.471 538.283 147.884 540.691 148.71C543.1 149.467 545.095 150.258 546.678 151.084C548.261 151.91 549.603 152.323 550.704 152.323C551.599 152.323 552.287 151.978 552.769 151.29C553.319 150.602 553.732 149.501 554.007 147.987H558.136C557.999 149.501 557.895 151.222 557.827 153.148C557.758 155.006 557.689 157.381 557.62 160.271C557.62 163.161 557.62 166.912 557.62 171.523H553.491C552.803 165.467 550.635 160.649 546.988 157.071C543.341 153.424 538.73 151.6 533.156 151.6C529.027 151.6 525.792 152.632 523.452 154.697C521.181 156.692 520.046 159.445 520.046 162.955C520.046 165.295 520.665 167.394 521.904 169.252C523.143 171.11 525.173 172.865 527.994 174.516C530.885 176.168 534.704 177.888 539.452 179.677C547.298 182.568 552.906 185.837 556.278 189.484C559.719 193.062 561.44 197.501 561.44 202.8C561.44 209.2 559.203 214.258 554.73 217.974C550.326 221.622 544.338 223.445 536.769 223.445ZM591.515 223.445C586.216 223.445 582.259 221.966 579.644 219.006C577.097 215.978 575.824 211.437 575.824 205.381V172.761H563.747V168.839H575.824V153.355C577.958 153.286 579.953 153.114 581.811 152.839C583.67 152.563 585.424 152.185 587.076 151.703V168.839H604.315V172.761H587.076V208.477C587.076 211.574 587.661 213.88 588.831 215.394C590.07 216.839 591.962 217.561 594.508 217.561C596.848 217.561 598.775 216.804 600.289 215.29C601.872 213.776 603.11 211.574 604.005 208.684L607.102 209.716C605.932 214.465 604.074 217.94 601.528 220.142C599.05 222.344 595.713 223.445 591.515 223.445ZM625.81 223.445C621.199 223.445 617.518 222.241 614.765 219.832C612.081 217.424 610.739 214.155 610.739 210.026C610.739 206.86 611.496 204.28 613.01 202.284C614.524 200.288 616.485 198.705 618.894 197.535C621.371 196.297 623.952 195.299 626.636 194.542C629.32 193.716 631.866 192.994 634.275 192.374C636.683 191.686 638.644 190.86 640.158 189.897C641.672 188.933 642.429 187.695 642.429 186.181V181.226C642.429 177.991 641.5 175.548 639.642 173.897C637.853 172.245 635.135 171.419 631.487 171.419C628.872 171.419 626.67 171.798 624.881 172.555C623.161 173.312 622.3 174.241 622.3 175.342C622.3 176.03 622.541 176.753 623.023 177.51C623.505 178.267 623.986 179.092 624.468 179.987C624.95 180.882 625.191 181.845 625.191 182.877C625.191 184.254 624.64 185.389 623.539 186.284C622.507 187.11 621.13 187.523 619.41 187.523C617.414 187.523 615.797 186.903 614.558 185.665C613.388 184.426 612.804 182.774 612.804 180.71C612.804 178.095 613.767 175.789 615.694 173.794C617.621 171.798 620.27 170.215 623.642 169.045C627.014 167.875 630.799 167.29 634.997 167.29C639.401 167.29 642.98 167.944 645.733 169.252C648.485 170.559 650.481 172.624 651.72 175.445C653.027 178.198 653.681 181.845 653.681 186.387V213.432C653.681 215.084 653.956 216.288 654.507 217.045C655.057 217.733 655.918 218.077 657.087 218.077C658.12 218.077 659.186 217.837 660.287 217.355C661.388 216.804 662.49 216.116 663.591 215.29L665.449 218.594C663.659 220.176 661.733 221.381 659.668 222.206C657.604 223.032 655.264 223.445 652.649 223.445C645.905 223.445 642.498 220.486 642.429 214.568C640.434 217.527 638.059 219.763 635.307 221.277C632.554 222.723 629.388 223.445 625.81 223.445ZM630.662 216.735C632.933 216.735 635.066 216.185 637.062 215.084C639.126 213.983 640.915 212.331 642.429 210.129V191.548C641.741 192.649 640.606 193.578 639.023 194.335C637.509 195.092 635.788 195.849 633.862 196.606C632.004 197.295 630.18 198.12 628.391 199.084C626.601 200.047 625.122 201.286 623.952 202.8C622.782 204.245 622.197 206.138 622.197 208.477C622.197 211.092 622.92 213.123 624.365 214.568C625.879 216.013 627.978 216.735 630.662 216.735ZM692.524 223.445C687.5 223.445 683.13 222.344 679.414 220.142C675.767 217.871 672.945 214.671 670.95 210.542C668.954 206.344 667.956 201.389 667.956 195.677C667.956 189.828 668.988 184.804 671.053 180.606C673.186 176.34 676.145 173.071 679.93 170.8C683.784 168.46 688.36 167.29 693.659 167.29C697.513 167.29 700.92 167.91 703.879 169.148C706.907 170.318 709.281 171.935 711.001 174C712.722 175.996 713.582 178.335 713.582 181.019C713.582 183.428 712.825 185.424 711.311 187.006C709.866 188.52 707.973 189.277 705.634 189.277C703.844 189.277 702.365 188.796 701.195 187.832C700.094 186.869 699.543 185.63 699.543 184.116C699.543 182.74 699.853 181.535 700.472 180.503C701.16 179.471 701.814 178.542 702.434 177.716C703.122 176.822 703.466 175.927 703.466 175.032C703.466 173.931 702.778 173.071 701.401 172.452C700.025 171.763 698.201 171.419 695.93 171.419C690.838 171.419 686.881 173.415 684.059 177.406C681.307 181.398 679.93 187.075 679.93 194.439C679.93 201.802 681.272 207.445 683.956 211.368C686.709 215.29 690.666 217.252 695.827 217.252C699.13 217.252 702.021 216.391 704.498 214.671C707.044 212.882 709.143 210.232 710.795 206.723L714.511 208.89C712.722 213.501 709.9 217.08 706.046 219.626C702.262 222.172 697.754 223.445 692.524 223.445ZM716.56 222V217.974C720.758 217.768 723.649 217.148 725.231 216.116C726.814 215.084 727.605 213.226 727.605 210.542V155.419C727.605 152.116 726.78 149.811 725.128 148.503C723.476 147.127 720.621 146.404 716.56 146.335V142.206C718.074 142.275 719.554 142.344 720.999 142.413C722.444 142.482 723.889 142.516 725.335 142.516C730.152 142.516 734.659 142.034 738.857 141.071V210.542C738.857 213.226 739.373 215.084 740.405 216.116C741.507 217.148 743.502 217.768 746.393 217.974V222C744.947 221.931 742.986 221.862 740.509 221.794C738.1 221.656 735.657 221.587 733.18 221.587C730.152 221.587 727.021 221.656 723.786 221.794C720.621 221.862 718.212 221.931 716.56 222ZM754.857 222V217.974C757.61 217.699 759.296 217.114 759.915 216.219C760.603 215.325 760.466 213.845 759.502 211.781L755.167 202.49C753.928 199.806 752.552 197.948 751.038 196.916C749.593 195.884 747.562 195.368 744.947 195.368H737.102V191.342H746.083C748.285 191.342 750.143 190.998 751.657 190.31C753.171 189.622 754.582 188.417 755.889 186.697L758.264 183.394C759.433 181.88 760.156 180.503 760.431 179.265C760.775 178.026 760.638 176.959 760.018 176.065C759.468 175.101 758.436 174.344 756.922 173.794C755.408 173.243 753.446 172.933 751.038 172.865V168.839C753.033 168.908 755.27 168.976 757.747 169.045C760.294 169.114 763.046 169.148 766.005 169.148C767.864 169.148 769.584 169.148 771.167 169.148C772.75 169.08 774.229 169.045 775.605 169.045C777.051 168.976 778.427 168.908 779.735 168.839V172.865C777.188 173.346 775.021 173.966 773.231 174.723C771.442 175.48 769.825 176.477 768.38 177.716C767.003 178.886 765.593 180.434 764.147 182.361L756.302 192.89L754.031 190.413C756.165 190.619 757.954 191.101 759.399 191.858C760.913 192.615 762.221 193.751 763.322 195.265C764.492 196.778 765.661 198.843 766.831 201.458L770.651 209.2C771.683 211.402 772.75 213.123 773.851 214.361C774.952 215.531 776.294 216.391 777.876 216.942C779.459 217.424 781.489 217.768 783.967 217.974V222C781.489 221.931 779.356 221.897 777.567 221.897C775.846 221.828 774.298 221.794 772.922 221.794C771.614 221.725 770.272 221.69 768.896 221.69C766.831 221.69 764.767 221.725 762.702 221.794C760.707 221.794 758.092 221.862 754.857 222Z"
     fill="#213828"
     id="path12"
     style="fill:#f9f7f2;fill-opacity:1" />
</svg>
